<svg xmlns="http://www.w3.org/2000/svg" viewBox="0 0 134.25 134.32"><defs><style>.cls-1{fill:#9d1a28;}.cls-2{fill:#4d4d4d;}</style></defs><g id="Layer_2" data-name="Layer 2"><g id="Layer_1-2" data-name="Layer 1"><path class="cls-1" d="M114.07,2c-4.21,5-8.29,9.8-12.37,14.64-4.38,5.2-4.3,7.63.39,12.32,1.41,1.41,2.84,2.81,4.22,4.25,5.27,5.52,7.39,5.65,13.31.53,4.61-4,9.12-8.1,13.88-12.33.18,1,1,2.73.69,4.26-1.46,8-4.72,15.24-10.7,21-5.45,5.21-11.69,6.43-18.89,3.84a6.36,6.36,0,0,0-5.43,1q-29.31,27.83-58.25,56a6.79,6.79,0,0,0-1.77,5.07,13.54,13.54,0,0,1-4.77,13c-5.45,4.75-11.66,7.7-18.91,7.42l-.77-1.32c3-2.88,6.16-5.69,9.11-8.67,5.67-5.71,5.63-7.33,0-13-6.84-6.9-8-6.9-15.06.2-2.43,2.46-4.75,5-7.44,7.86-.6-1-1.26-1.61-1.31-2.27C-.54,108.54,6.55,97,13.35,94.47c2.09-.77,4.89-1.43,6.74-.65,4.3,1.81,6.58-.24,9.35-2.92Q56.64,64.47,84.1,38.31c2.33-2.22,3.28-3.9,1.7-7.15-3.37-6.9-1.83-13.31,3.3-18.83C94.76,6.25,102,3.11,110,1.61A10.58,10.58,0,0,1,114.07,2ZM89.81,49.85c-.92-1-1.68-2.53-2.36-2.49a7.11,7.11,0,0,0-4.28,1.54Q63.49,67.59,44.1,86.56c-1.14,1.14-1,3.56-1.49,5.38,1.85-.37,4.29-.11,5.46-1.21,13.18-12.39,26.16-25,39.17-37.55A30.69,30.69,0,0,0,89.81,49.85Zm14.3-12.94c-1.71-1.47-2.91-3.18-3.66-3-1.24.28-2.19,1.8-3.27,2.79,1,.93,1.83,2.46,2.9,2.61S102.24,38.1,104.11,36.91ZM33.4,104.82c-1.68-1.38-2.89-3-3.65-2.85-1.19.28-2.09,1.82-3.11,2.82.95.9,1.84,2.41,2.87,2.51S31.63,106,33.4,104.82Z"/><path class="cls-2" d="M20.15.69C22.62.44,24.6-.38,25.94.21c6.6,2.93,13.63,5.41,19.34,9.62,6.58,4.84,8.24,12.11,4.94,20.15a5.88,5.88,0,0,0,1,5c4.09,4.77,8.53,9.22,13.19,14.15l-5.14,4.49-1.12,1.14c-1.71-2.19-3.33-4.47-5.17-6.55-1.52-1.71-3.53-4.1-5.61-1.43-.74.95.54,4,1.57,5.69,1.19,1.94,3.11,3.42,4.94,5.34l-4.2,3.72c-4.26-4.2-8.24-8.38-12.55-12.19a5.88,5.88,0,0,0-4.91-1.1c-9.69,3.5-17.09,2.09-22.81-6.32C5.84,36.69,3.85,30.35,1.53,24.37c-.59-1.54.24-3.62.42-5.45l1.28-.38C5,20.44,6.6,22.39,8.39,24.21c3.15,3.19,6.25,6.45,9.61,9.41s6.83,2.93,10-.6c1.9-2.08,4-4,6.05-5.94,4.28-4.16,4.62-6.44.61-11.08C30.37,11,25.61,6.4,20.15.69ZM40.14,35C38.28,33.6,37,32,36.23,32.24c-1.22.32-2.12,1.86-3.15,2.88,1,.87,2,2.33,3.06,2.43S38.26,36.27,40.14,35Z"/><path class="cls-2" d="M79.26,77.58l6-6.35c-.23.47-.47.94-.71,1.41,7.36,6.72,14.62,13.56,22.15,20.08,1.59,1.38,4.14,1.79,6.33,2.32,2.53.61,5.4.3,7.68,1.36,7.65,3.55,13.55,16.15,10.81,23.23-3.31-3.46-6.36-6.88-9.66-10-4.92-4.7-6.73-4.58-11.56.23-7.62,7.59-7.62,8.47.19,16.12,2.35,2.3,4.76,4.54,7.19,6.86-.64.59-1,1.14-1.36,1.22-11.72,2.44-24.82-11-22.35-22.56.32-1.47-.7-3.7-1.82-4.9-6.76-7.3-13.73-14.4-21-21.95L75.39,81c3.67,3.56,7.09,7.19,10.9,10.37,1.13,1,3.34.61,5,.86-.25-1.62.08-3.81-.85-4.76C87.1,84.06,83.29,81.06,79.26,77.58Zm28.68,28c-1.8-1.34-3.1-3-3.89-2.74-1.22.33-2.09,1.92-3.11,3,1,.88,2,2.37,3.08,2.45S106.14,106.84,107.94,105.53Z"/></g></g></svg>