<svg xmlns="http://www.w3.org/2000/svg" viewBox="0 0 157.05 157.06"><defs><style>.cls-1{fill:#4d4d4d;}.cls-2{fill:#9d1a28;}</style></defs><g id="Layer_2" data-name="Layer 2"><g id="Layer_1-2" data-name="Layer 1"><path class="cls-1" d="M157.05,76.43v4A10,10,0,0,0,157,82.3a60.72,60.72,0,0,1-2.92,19.11,78.12,78.12,0,0,1-5.58,13.67,79.34,79.34,0,0,1-9.68,14.39q-2.11,2.49-4.41,4.79a80.18,80.18,0,0,1-10.47,8.81,81.19,81.19,0,0,1-12.2,7,78.75,78.75,0,0,1-20.29,6.25,64.72,64.72,0,0,1-9.12.64,10.79,10.79,0,0,0-2,.08H76a18,18,0,0,0-3.11-.13,60.53,60.53,0,0,1-16.31-2.71,78.34,78.34,0,0,1-28.62-15.31,78.17,78.17,0,0,1-6.64-6.23,79.83,79.83,0,0,1-11-14.77A78.84,78.84,0,0,1,1.18,93.49a49.23,49.23,0,0,1-1-9.07C.12,82-.06,79.53,0,77.09a86.18,86.18,0,0,1,.46-9.23A78.82,78.82,0,0,1,16,30.55c1.55-2,3.23-3.94,5-5.83A77.42,77.42,0,0,1,40.45,9.53a79,79,0,0,1,26.32-9A44.44,44.44,0,0,1,73.08.09c1,0,2-.13,3.06-.08h5a67,67,0,0,1,21.35,3.37,80.15,80.15,0,0,1,12.24,5A78.53,78.53,0,0,1,129,17.91a76.63,76.63,0,0,1,7.24,6.83,79.64,79.64,0,0,1,17.1,28.71A70.3,70.3,0,0,1,156.7,67.9a51,51,0,0,1,.27,6.77A8.65,8.65,0,0,0,157.05,76.43Z"/><path class="cls-1" d="M82.41,156.92a.66.66,0,0,0,0,.14H80.25A5.63,5.63,0,0,1,82.41,156.92Z"/><path class="cls-1" d="M157.05,82.41l-.06,0h-.07a4.92,4.92,0,0,1,.13-2Z"/><path class="cls-1" d="M156.92,74.57a.11.11,0,0,1,.13,0v1.84A4.19,4.19,0,0,1,156.92,74.57Z"/><path class="cls-2" d="M75.72,85.27a2.41,2.41,0,0,0-.79.59q-6.59,6-13.15,12.07a3,3,0,0,1-2.42.92A2.74,2.74,0,0,1,56.91,97a2.64,2.64,0,0,1,.58-3c1-1,2.08-2,3.14-2.93L73.68,79.12c.18-.18.37-.35.61-.56L73.75,78,58.26,63.82c-.28-.26-.57-.51-.83-.79a2.9,2.9,0,0,1,3.79-4.33,6.6,6.6,0,0,1,.76.64L75.2,71.45l.37.33c.23-.25.15-.54.15-.8V47.23a8.29,8.29,0,0,1,0-1,2.89,2.89,0,0,1,4.51-2.07,9.19,9.19,0,0,1,.76.64L97.68,60.07a3.37,3.37,0,0,1,1.25,2,3,3,0,0,1-1.11,2.86l-5.43,5-8.64,7.92-.23.2c-.62.62-.67.47,0,1.07,1.16,1.08,2.33,2.14,3.5,3.21l10.79,9.89a2.94,2.94,0,0,1,0,4.71q-8.56,7.85-17.1,15.7a3,3,0,0,1-4.2-.06,2.51,2.51,0,0,1-.73-1.49,11.15,11.15,0,0,1-.07-1.29V85.27Z"/><path class="cls-1" d="M81.66,53.28l10.11,9.26-10,9.23c-.07,0-.1,0-.12-.06s0,0,0,0l0-17.76A.92.92,0,0,1,81.66,53.28Z"/><path class="cls-1" d="M81.65,103.71c-.17-.61-.17-17.76,0-18.38a1.48,1.48,0,0,1,.59.46L91.16,94a3.74,3.74,0,0,0,.29.25c.26.21.24.38,0,.61l-9.59,8.79A.63.63,0,0,1,81.65,103.71Z"/></g></g></svg>