<svg xmlns="http://www.w3.org/2000/svg" viewBox="0 0 157.05 157.12"><defs><style>.cls-1{fill:#4d4d4d;}.cls-2{fill:#fff;}</style></defs><g id="Layer_2" data-name="Layer 2"><g id="Layer_1-2" data-name="Layer 1"><path class="cls-1" d="M157.05,76.49v4a9.94,9.94,0,0,0-.08,1.89,60.8,60.8,0,0,1-2.92,19.11,78,78,0,0,1-5.58,13.66,79.76,79.76,0,0,1-9.68,14.4c-1.41,1.66-2.88,3.26-4.41,4.78a79.41,79.41,0,0,1-10.47,8.81,80.34,80.34,0,0,1-12.2,7,78.77,78.77,0,0,1-20.29,6.26,66.24,66.24,0,0,1-9.12.63,12.74,12.74,0,0,0-2,.08H76a18,18,0,0,0-3.11-.13,60.53,60.53,0,0,1-16.31-2.71,76.07,76.07,0,0,1-13.72-5.43A78,78,0,0,1,27.92,139a78.11,78.11,0,0,1-17.63-21A79,79,0,0,1,1.18,93.55a49.22,49.22,0,0,1-1-9.06C.12,82-.06,79.6,0,77.15a86.31,86.31,0,0,1,.46-9.23A78.82,78.82,0,0,1,16,30.61c1.55-2,3.23-3.94,5-5.82a74.56,74.56,0,0,1,10.09-9.12,75.83,75.83,0,0,1,9.37-6.08,81,81,0,0,1,14-6A79.84,79.84,0,0,1,66.77.62,44.43,44.43,0,0,1,73.08.16c1,0,2-.14,3.06-.08h5a66.49,66.49,0,0,1,21.35,3.37,79.11,79.11,0,0,1,12.24,5A80,80,0,0,1,136.27,24.8a79.56,79.56,0,0,1,17.1,28.72A70.2,70.2,0,0,1,156.7,68a51,51,0,0,1,.27,6.77A8.62,8.62,0,0,0,157.05,76.49Z"/><path class="cls-1" d="M81.32,0c0,.05,0,.09,0,.14H76c0-.05,0-.09,0-.14Z"/><path class="cls-1" d="M82.41,157a.66.66,0,0,0,0,.14H80.25A5.83,5.83,0,0,1,82.41,157Z"/><path class="cls-1" d="M70.29,0c0,.07,0,.21-.11.2s0-.13-.05-.2Z"/><path class="cls-2" d="M75.72,85.33a2.41,2.41,0,0,0-.79.59q-6.59,6-13.15,12.07a3,3,0,0,1-2.42.93,2.75,2.75,0,0,1-2.45-1.81,2.66,2.66,0,0,1,.58-3c1-1,2.08-2,3.14-2.92l13.05-12,.61-.55-.54-.57L58.26,63.89c-.28-.26-.57-.52-.83-.8a2.9,2.9,0,0,1,3.79-4.33,7.79,7.79,0,0,1,.76.64L75.2,71.51c.11.11.23.2.37.33.23-.25.15-.54.15-.79V47.29a8.35,8.35,0,0,1,0-1,2.89,2.89,0,0,1,4.51-2.07,9.19,9.19,0,0,1,.76.64L97.68,60.13a3.4,3.4,0,0,1,1.25,2A3.05,3.05,0,0,1,97.82,65c-1.81,1.64-3.62,3.31-5.43,5l-8.64,7.92-.23.21c-.62.61-.67.46,0,1.06q1.74,1.62,3.5,3.22l10.79,9.88a3,3,0,0,1,0,4.72c-5.71,5.23-11.42,10.44-17.1,15.7a3,3,0,0,1-4.2-.07,2.51,2.51,0,0,1-.73-1.48,11.33,11.33,0,0,1-.07-1.3V85.33Z"/><path class="cls-1" d="M81.66,53.34,91.77,62.6l-10,9.23-.12,0,0,0,0-17.76A1,1,0,0,1,81.66,53.34Z"/><path class="cls-1" d="M81.65,103.78c-.17-.62-.17-17.76,0-18.38a1.55,1.55,0,0,1,.59.45L91.16,94a2.43,2.43,0,0,0,.29.26c.26.2.24.38,0,.61l-9.59,8.78A1,1,0,0,1,81.65,103.78Z"/></g></g></svg>