<svg xmlns="http://www.w3.org/2000/svg" viewBox="0 0 124.18 95.19"><defs><style>.cls-1{fill:#4d4d4d;}.cls-2{fill:#9d1a28;}</style></defs><g id="Layer_2" data-name="Layer 2"><g id="Layer_1-2" data-name="Layer 1"><path class="cls-1" d="M16.93,87.12V82.3c0-7.39,0-14.78,0-22.17a1.44,1.44,0,0,1,1.28-1.7c11.42-3.09,22.78-3.09,33.92,1a49.24,49.24,0,0,0,20.36,2.77C75,62,77.5,62,80,62a17.34,17.34,0,0,1,3,.25c1.66.27,3.09.95,3.64,2.7a4.32,4.32,0,0,1-1.28,4.82,15.61,15.61,0,0,1-4.69,2.71,38.55,38.55,0,0,1-12.14,1.94c-5.91.07-11.82-.1-17.73-.18-1.69,0-2.25.26-2.29,1.22s.59,1.42,2.27,1.44c5.67.09,11.35.39,17,.16a91.84,91.84,0,0,0,12.31-1.64,14.54,14.54,0,0,0,6.71-3.29,6.94,6.94,0,0,0,2.49-7.5,1.51,1.51,0,0,1,.35-1.26,123.93,123.93,0,0,1,20.44-13.75,37.84,37.84,0,0,1,5.76-2.31,7.6,7.6,0,0,1,6,.58,4.07,4.07,0,0,1,2,5.19,2.66,2.66,0,0,1-.84,1.1Q100,71.88,76.93,89.53a27.66,27.66,0,0,1-9.14,5.11,14.85,14.85,0,0,1-4.59.54c-9.54-.39-18.77-2.79-28.11-4.52-5.57-1-11.12-2.15-16.69-3.23C18,87.36,17.62,87.27,16.93,87.12Z"/><path class="cls-2" d="M98.19,27.68A27.64,27.64,0,1,1,70.41,0,27.6,27.6,0,0,1,98.19,27.68ZM69.84,38.46c0,1.21,0,2.52,0,3.84,0,.68,0,1.46,1,1.5s1-.77,1-1.44c0-1.38,0-2.77,0-4.06a30.3,30.3,0,0,0,3-.91A6.66,6.66,0,0,0,79,30.62c-.12-2.69-1.8-4.76-4.67-5.73-.82-.28-1.66-.53-2.46-.79V17.66a3.61,3.61,0,0,1,2.49,2.6,1.93,1.93,0,0,0,2.57,1.48A2,2,0,0,0,78.06,19a6.19,6.19,0,0,0-4.42-4.18c-.6-.16-1.22-.27-1.89-.42a5.69,5.69,0,0,0,0-1.61c-.17-.47-.55-1.14-.94-1.23-.74-.16-1,.51-1,1.17s0,1.16,0,1.64a26.17,26.17,0,0,0-2.75.73,5.79,5.79,0,0,0-3.93,5.49,5.71,5.71,0,0,0,3.56,5.94c.8.36,1.66.59,2.46.94.27.11.64.42.65.65,0,2.23,0,4.45,0,6.77-.3-.08-.49-.11-.67-.18-1.6-.63-2.1-2.07-2.62-3.51s-1.27-1.78-2.45-1.51a2,2,0,0,0-1.5,2.38,6.06,6.06,0,0,0,3.23,4.77A30.85,30.85,0,0,0,69.84,38.46Z"/><path class="cls-1" d="M0,71.79V55.14c0-1.81.62-2.73,2.37-2.84a72.42,72.42,0,0,1,9-.07c2.29.14,2.93,1.11,2.93,3.38q0,16.17,0,32.35c0,.44,0,.88,0,1.32A2.61,2.61,0,0,1,11.43,92C8.52,92,5.6,92,2.69,92A2.45,2.45,0,0,1,.08,89.52,26.81,26.81,0,0,1,0,86.41Z"/><path class="cls-2" d="M71.87,28.35c2.31.49,3.34,1.6,3.24,3.45a3.38,3.38,0,0,1-3.24,3.14Z"/><path class="cls-2" d="M69.7,23.4c-2-.54-2.77-1.44-2.72-3s.88-2.34,2.72-2.74Z"/></g></g></svg>