<svg xmlns="http://www.w3.org/2000/svg" viewBox="0 0 114.67 118.76"><defs><style>.cls-1{fill:#9d1a28;}.cls-2{fill:#4d4d4d;}</style></defs><g id="Layer_2" data-name="Layer 2"><g id="Layer_1-2" data-name="Layer 1"><path class="cls-1" d="M64,0C67.3.87,70.69,1.63,74,2.63c30.61,9.28,47.21,41.23,38.23,73.67-.58,2.07-1.93,3.91-2.92,5.85l-7.38,11.19c-1.38,1.42-2.75,2.86-4.15,4.26a57.33,57.33,0,0,1-61.64,12.7C26.49,106.48,19,99.92,11.94,92.59L9,89.91c-9.15-14.34-11.09-30-7-46.13,5.86-23,21.05-37,44.14-42.54C47.79.86,49.37.41,51,0ZM57.69,2.59A54.69,54.69,0,1,0,112.1,57.43,54.54,54.54,0,0,0,57.69,2.59Z"/><path class="cls-1" d="M9,89.91l2.91,2.68a11.69,11.69,0,0,0,1.13,2.6c20.91,27.37,65.44,28.19,87.35,1.58a13.66,13.66,0,0,0,1.52-3.43l7.38-11.19c-.17,1.54.09,3.29-.58,4.57-9.84,19-25.37,30.13-46.7,31.83C40.33,120.28,23,111.61,10.23,93.9,9.47,92.83,9.41,91.25,9,89.91Z"/><path class="cls-2" d="M108.16,57.16A50.8,50.8,0,1,1,57.3,6.4,50.56,50.56,0,0,1,108.16,57.16ZM14.74,75.59C20.82,92.06,38.35,103.8,56.69,104c18.86.21,36.64-11.18,43.18-27.85l-8-3.84.35-.76,9,3.28c1.12-5.66,2.17-11,3.38-17.13H95.22c0-.35,0-.69,0-1h9.39c-1.2-6-2.27-11.38-3.39-17L92.17,43l-.29-.9,8.37-3.81A50.77,50.77,0,0,0,75.48,14L71.6,22.12l-.75-.3L74,13,57.39,10.14l-.51,8.73h-.6c-.2-2.67-.39-5.33-.65-8.76L39.48,13.6c1.12,3.29,1.94,5.71,2.76,8.14l-.85.25L37.8,14.2,24.34,23.76c2.31,2.67,3.94,4.56,5.58,6.44l-.62.49L23,24.92,14,38.62l7.26,3.74L21,43l-7.7-2.63c-1,5.49-2,10.53-3,15.94L18,57v.54l-7.78.73c1.1,5.5,2.12,10.58,3.18,15.92l7.69-2.61.31.74Z"/><path class="cls-2" d="M82.19,44.31c5.35,8.38,4.59,17,.6,25.52-.45,1-2.35,1.77-3.59,1.78q-21.69.18-43.4,0a5.39,5.39,0,0,1-3.94-2c-7.5-12.2-1.07-30.87,12.86-37.78,14.12-7,32.23-.9,37.58,12.67-1.57-.15-3.31-.81-4.64-.34C70,46.81,62.39,49.63,54.93,52.8a6.33,6.33,0,0,0-3,4.51,5.28,5.28,0,0,0,2.46,4.31,6.57,6.57,0,0,0,5.45-.35c6.34-4.17,12.46-8.68,18.58-13.18A34.76,34.76,0,0,0,82.19,44.31Z"/><path class="cls-1" d="M58,86.06c-5.49,0-11-.07-16.47,0-2.8,0-4.4-.83-4.45-3.92s1.26-4.5,4.46-4.47q16.47.14,32.94,0c3.19,0,4.51,1.3,4.44,4.49s-1.63,4-4.45,3.91C68.94,86,63.45,86.05,58,86.06Z"/><path class="cls-1" d="M52.81,93.2c-2.13,1.62-3.52,3.42-4.45,3.2a5.25,5.25,0,0,1-3.22-3.28c-.2-.73,1.85-2.91,2.89-2.91C49.34,90.22,50.66,91.76,52.81,93.2Z"/><path class="cls-1" d="M58.43,98C56.65,96,54.85,94.76,55,93.76c.15-1.33,1.76-2.51,2.74-3.75,1.13.94,3.06,1.79,3.18,2.85C61,94.16,59.65,95.63,58.43,98Z"/><path class="cls-1" d="M72.54,93.26c-2.12,1.62-3.49,3.39-4.39,3.18A5.11,5.11,0,0,1,65,93.2c-.2-.75,1.81-2.91,2.84-2.93C69.08,90.26,70.38,91.81,72.54,93.26Z"/></g></g></svg>