<svg xmlns="http://www.w3.org/2000/svg" viewBox="0 0 157.4 146.32"><defs><style>.cls-1{fill:#4d4d4d;}</style></defs><g id="Layer_2" data-name="Layer 2"><g id="Layer_1-2" data-name="Layer 1"><path class="cls-1" d="M87.15,77.23c-2.77,5.62-5.5,11.25-8.31,16.85s-8,7.91-13.14,5.66a7.69,7.69,0,0,1-4-4.46c-1.15-4.54,3.32-11.76,7.49-14A11.56,11.56,0,0,0,74,76.49c3.22-6.87,4.58-13.86-.15-20.83-.7-1-.53-2.84-.32-4.22,1.6-10.58,8-18.6,15-25.93,2.17-2.27,6.7-3.11,10.17-3.17,12.13-.2,24.27.21,36.41.44,4.41.08,6.88,2.33,9.11,6.35,8.21,14.85,8.54,31.27,10.27,47.41,1.17,10.92,1.91,21.88,2.67,32.84.22,3.13.63,6.64-.53,9.34-1,2.23-3.86,4.27-6.33,5-3,.95-5.89-.57-6.93-4.08-.6-2.05-1.14-4.1-1.65-6,0,5.93.29,12-.15,18-.17,2.35-1.41,5.33-3.19,6.71-4,3.11-9.28,1-10.42-4-1.52-6.78-2.43-13.7-3.76-21.5-.41,8-.73,15-1.14,22.07a52.32,52.32,0,0,1-.69,5.43c-.58,3.63-2.81,5.72-6.41,5.82s-6.56-1.64-7.1-5.58c-1.08-7.74-1.95-15.5-2.82-23.26-.27-2.47-.27-5-1.23-7.54-.61,6.23-1.18,12.46-1.86,18.68a47.61,47.61,0,0,1-1.13,6.38c-.87,3.47-3.64,5.23-6.73,4.49a11.4,11.4,0,0,1-6.15-4.66c-1.15-1.75-1-4.49-1.05-6.8-.08-16.75,0-33.51,0-50.26Zm45.9-29.58c-8.25.07-16.51,0-24.75.29-4.2.17-8.37,1.16-12.55,1.79-8,5.37-8.14,19.49-4.29,26.75,2.72,5.14,8.47,5.38,11.64.62,2.28-3.42,4.41-3.62,7.08-.64.77.87,1.7,1.6,2.45,2.48,2.56,3,4.62,2.29,6.77-.59,3.86-5.18,4-5.13,8.31-.57,2.49,2.63,4.92,3.49,7.17-.27,2.39-4,4.78-3.91,7.7-.36,2.53,3.08,5,2.64,6.89-.88C156.77,63,148.14,47.9,133.05,47.65Zm-15-4.77v0c1.84,0,3.67.05,5.5,0,4.35-.14,7-2.53,7.18-6.74s-2.52-6.89-6.7-7.22a69.25,69.25,0,0,0-12.47,0c-4,.42-6.38,3.12-6.2,7.16s2.61,6.39,6.7,6.7C114,43,116,42.88,118,42.88Zm2.73,59.78c-2.25-3.33-3.6-6.11-5.72-8-.68-.62-4.84.82-4.94,1.62a44.43,44.43,0,0,0,.16,12c.14.89,4.1,2.37,4.86,1.76C117.21,108.33,118.53,105.71,120.75,102.66Zm16.19-1.55a25.81,25.81,0,0,0-.29-3.57c-.64-3.46-3-4.77-6.19-4-5.13,1.33-3.5,5.57-3.44,9s.59,6.46,4.74,6.92C135.51,110,137.22,107.39,136.94,101.11ZM101,102l1.13-.78c-1.49-2.19-2.63-4.82-4.61-6.38-.85-.68-4.82.53-5,1.38a39.29,39.29,0,0,0-.68,11.5c.09,1,3.23,2.44,4.76,2.23s3.13-2,4-3.57C101.29,105.22,100.9,103.46,101,102Zm40.54-7.18,1,1c.16,1.64.26,3.29.49,4.93.44,3.08,2.24,4.87,5.38,4.52s4.68-2.27,4.35-5.49c-.17-1.64-.55-3.26-.64-4.9-.2-3.6-2-6.08-5.55-5.08C144.59,90.35,143.19,93.05,141.52,94.79Zm-22.64,37c-3.62,1.26-10.74-1.36-7.13,6.66.75,1.67,3,3.65,4.64,3.73C119.2,142.35,120.46,136.94,118.88,131.82Zm18.89-6.22c-3.59,1.42-10.69-1.1-7,6.89.76,1.66,3,3.62,4.68,3.66C138.29,136.23,139.49,130.84,137.77,125.6Zm-39.39,0c-2.87,1.77-10.08-1.61-7.08,6.74.92,2.56,2.07,4.68,5.19,3.88C99.36,135.51,100.34,130.09,98.38,125.63Zm45.41-14.37a91.84,91.84,0,0,0,4.6,9.26c.29.46,3.37.12,3.86-.67,1.87-3,2.54-6.32.64-9.22Z"/><path class="cls-1" d="M56.56,79.89c.17,1.66,1,3.64.4,4.91-3.55,7.36-.56,14.75-.29,22.09,0,1.17,2.38,3.09,3.75,3.17,1.64.1,3.43-1.31,5-2.24a18.46,18.46,0,0,0,2.63-2.24c.52,1.21,1.52,2.42,1.5,3.62-.11,7.64-.38,15.28-.74,22.92-.21,4.33-2.15,7.38-6.94,7.49-4.48.1-6.65-2.51-7.13-6.72-.84-7.42-1.63-14.85-3-22.48-.24,1.75-.54,3.49-.72,5.24-.8,7.77-1.49,15.55-2.4,23.31-.49,4.19-2.5,7.36-7.24,7.36s-6.71-3.25-7.06-7.46c-.65-7.76-1.06-15.55-1.65-24.61-1.28,7.43-2.29,13.63-3.42,19.81-.7,3.82-3,5.83-7,5.62s-6.67-2.2-6.76-6.45c-.14-6.29,0-12.59,0-19.63-.63,2.1-1.19,3.55-1.5,5.07-.8,3.91-3.23,5.78-7.1,5.43-4.1-.36-7.15-2.36-6.93-6.91C.56,105.57,1.12,94,2.13,82.36c1-10.92,1.83-21.92,4-32.64C7.66,42,11,34.63,14.11,27.37a8.42,8.42,0,0,1,6.14-4.11c13.93-.46,27.89-.49,41.83-.43,5.5,0,8.43,4.21,11.07,8.27.51.79-.38,2.62-.84,3.9-2.17,6-4.42,12-6.61,17.86l-4.93-3.23-3.25-.92c-3.41-.21-6.81-.48-10.23-.62-8.13-.35-16.28-.64-24.42-1-6.56-.33-11.46,2.42-14.88,8C5.21,62.8,3.92,70.5,8,78.2c2.09-.12,5.35.56,6.08-.5,3.22-4.69,5.67-3.47,8.34.21,2.41,3.32,4.62,3,7.1-.06,3.35-4.15,4.78-4.09,8-.12,3.51,4.33,4.75,4.34,8.33.06C49,74,51.49,74,54.61,77.65,55.25,78.41,55.91,79.15,56.56,79.89Zm-17.89-37v0c2.17,0,4.34.09,6.49,0,3.92-.21,6.76-2.61,6.41-6.19-.26-2.59-2.67-6.64-4.7-7a50.05,50.05,0,0,0-15.74,0c-3.48.45-5.15,3.69-4.7,7.21s2.55,5.76,6.26,6C34.67,43,36.68,42.87,38.67,42.87Zm9.92,59.75c-.61-2.38-.51-5.53-1.9-6.46C45,95,40,95.53,40,95.76c-.54,4.34-.55,8.75-.67,13.14,2.39.06,5.28,1,7-.08C47.76,108,47.86,104.84,48.59,102.62ZM30.13,101.2h0c0-.5,0-1,.09-1.49.39-3.49-.78-5.95-4.59-6.17-3.49-.2-5,1.92-5.28,5.19-.15,2-.9,4.21-.23,5.86.79,2,2.55,4.31,4.38,4.85,2.87.85,5-1.15,5.39-4.29C30,103.84,30,102.52,30.13,101.2ZM14.61,95.48l1.06-1c-1.67-1.58-3.1-4-5.07-4.56C7.36,88.9,5.35,91,5,94.4c-.23,2-1.13,4.18-.53,5.85.72,2,2.58,4.68,4.21,4.88s4-2.06,5.15-3.83C14.75,99.8,14.39,97.46,14.61,95.48Zm4.28,30.71c-1.25,3.6-.86,7.05,1.92,9.78.62.61,3.17.35,3.9-.41a7.94,7.94,0,0,0,1.73-9ZM2.59,110.6a94.2,94.2,0,0,0,2.83,9.89c.15.38,3.86.24,4.22-.5,1.33-2.65,1.93-5.67,2.81-8.57Zm34.23,21.52a78.64,78.64,0,0,0,2.58,9.54c.2.52,3.45.74,4.22,0a8.11,8.11,0,0,0,1.86-9.1ZM57,126.39a91.3,91.3,0,0,0,2.75,9.39c.19.48,3.1.66,3.89,0,2.92-2.52,3-5.88,2-9.37Z"/><path class="cls-1" d="M56.66,70.66,49.57,67c-2,3.16-11.75,2.59-15-2.09,0,5.55-4.42,3.66-7.11,4.43-3.22.92-6.5,1-7.35-3.62-.1,1.43-.21,2.86-.33,4.57-3.79.55-6.14-.85-6.95-4.57-1-4.72,1-9.81,4.64-10.94a26,26,0,0,1,7.35-1.08q12.45-.15,24.91.11A15.21,15.21,0,0,1,55.55,55c3.38,1.53,6.05,3.5,3.24,7.93C57.69,64.68,57.61,67.05,56.66,70.66Z"/><path class="cls-1" d="M65.74,19H16c0-1.1.09-3.08,0-5-.16-3.09,1.38-4.93,4.29-5C33.2,8.63,46.17,8.1,59.1,8.47,65.47,8.66,66,10.33,65.74,19Z"/><path class="cls-1" d="M140.73,18.85H91.67c-1.59-8.46.19-10.83,9.59-10.93,10.12-.11,20.27-.31,30.36.27C141.52,8.76,141.72,9.45,140.73,18.85Z"/><path class="cls-1" d="M57.52,48.71l3.25.92c1.23,1.3,2.49,2.58,3.67,3.93.26.31.22.87.63,2.72-6.94-7.53-14.69-5.14-22.27-4.86A93.89,93.89,0,0,1,25,50.34c-9.65-1.51-14.13,1.19-16,10.77-1.07,5.52-1.51,11,1.83,16.39,7.65-9,10.22-6.3,14.43-.07,2.79-1.71,5.62-4.84,8.33-4.73s5.4,3.4,7.8,5.09c3-1.69,6.26-5,9.47-5,2.85.06,5.63,3.88,7.85,7.06H56.56c-.65-.74-1.31-1.48-2-2.24C51.49,74,49,74,45.85,77.79c-3.58,4.28-4.82,4.27-8.33-.06-3.21-4-4.64-4-8,.12-2.48,3.07-4.69,3.38-7.1.06-2.67-3.68-5.12-4.9-8.34-.21-.73,1.06-4,.38-6.08.5Q8,66.65,8,55.1c3.42-5.54,8.32-8.29,14.88-8,3.12.82,6.23,2.3,9.35,2.33C40.65,49.55,49.09,49,57.52,48.71Z"/><path class="cls-1" d="M65.81,6.05C49.05,2.8,32.76,3.22,16.14,5.71,15.55,3,16.88.89,20.13.8,33.2.44,46.27.09,59.34.21,62.7.24,66.34,1.69,65.81,6.05Z"/><path class="cls-1" d="M140.57,5.49c-16.32-2.36-32.6-2.72-49.89.38,1.1-1.63,1.85-3.33,3.13-4.41A6.84,6.84,0,0,1,98,0c12.75.08,25.51.13,38.25.63C140.58.81,140.67,1.52,140.57,5.49Z"/><path class="cls-1" d="M66.53,79.22c1.91-6.78,3.71-13.21,5.61-20C75.7,66.85,73.16,76.11,66.53,79.22Z"/><path class="cls-1" d="M69.39,61c-1.68,5.51-2.94,9.66-4.2,13.8C63.17,69.67,63.94,65.38,69.39,61Z"/><path class="cls-1" d="M133.05,47.65c15.09.25,23.72,15.3,16.42,28.62-1.92,3.52-4.36,4-6.89.88-2.92-3.55-5.31-3.6-7.7.36-2.25,3.76-4.68,2.9-7.17.27-4.34-4.56-4.45-4.61-8.31.57-2.15,2.88-4.21,3.59-6.77.59-.75-.88-1.68-1.61-2.45-2.48-2.67-3-4.8-2.78-7.08.64-3.17,4.76-8.92,4.52-11.64-.62-3.85-7.26-3.68-21.38,4.29-26.75,6.08-.08,12.18.06,18.25-.28C120.37,49.09,126.7,48.27,133.05,47.65Zm-2.16,29.64c2.74-2,5.11-5.19,7.51-5.2,2.64,0,5.3,2.85,8.24,4.64,2.94-4.72,2.51-10,1.51-15.21-2-10.31-6.2-12.75-16.55-11.22-6.5,1-13.2.62-19.81.74-3.65.07-7.52-.88-10.88.07-3,.85-7.1,3.28-7.71,5.75-1.34,5.44-1.15,11.37-.75,17,.1,1.53,3,3.3,5,4.06.84.32,2.88-1.43,3.84-2.66,3.08-3.93,7.66-4.16,11-.33,1.1,1.26,2.23,2.51,3.45,3.88C120.73,71.82,123.23,68.39,130.89,77.29Z"/><path class="cls-1" d="M118,39.53c-1.82,0-3.84.48-5.42-.14s-2.58-2.34-3.84-3.59c1.19-1.11,2.28-3,3.58-3.18a50.13,50.13,0,0,1,11.42,0c1.31.16,2.42,2.11,3.62,3.24-1.29,1.23-2.39,2.95-3.93,3.55S119.84,39.53,118,39.53Z"/><path class="cls-1" d="M118.59,102.72,114,106.91c-1-1.8-2.49-3.54-2.72-5.44-.15-1.16,1.66-2.57,2.58-3.87Z"/><path class="cls-1" d="M136.39,101.4l-4,4.88c-1.12-1.7-2.86-3.29-3.14-5.11-.21-1.34,1.51-3,2.37-4.48Z"/><path class="cls-1" d="M100.3,102.17,96,106.86c-1-1.4-2.85-2.91-2.68-4.17.23-1.78,2-3.37,3-5C97.45,98.92,98.57,100.19,100.3,102.17Z"/><path class="cls-1" d="M143.11,96.45l4.35-3.69c1.06,1.94,2.51,3.79,3,5.87.21.89-1.58,2.25-2.46,3.4Z"/><path class="cls-1" d="M38.88,39.64c-2,0-4.13.48-5.87-.16a5.4,5.4,0,0,1-3-3.69c-.12-.95,1.76-3,2.89-3.12a66.82,66.82,0,0,1,12.33,0c1.14.11,3,2.16,2.93,3.1a5.36,5.36,0,0,1-3,3.74c-1.93.63-4.23.16-6.37.16Z"/><path class="cls-1" d="M38.73,102.24l4.55-4.57c.89,1.61,2.54,3.25,2.47,4.82s-1.85,3.09-2.88,4.64Z"/><path class="cls-1" d="M29.55,101.61l-4.83,4.75c-.86-1.53-2.58-3.18-2.37-4.55.27-1.8,2-3.38,3.17-5.06Z"/><path class="cls-1" d="M5,97.87l5-5c.81,1.53,2.39,3.14,2.22,4.55-.2,1.7-1.88,3.22-2.92,4.82Z"/><path class="cls-1" d="M137.18,70.29l-.27-4.5c-1.48,3.72-4.08,4.82-7.57,3.43-2.45-1-6.94,1.3-6.7-4.18-3.68,4.36-13.29,5-15.15,1.2-3.31,3.66-8,4.64-10.43,2.18-2.77-2.82-1.9-9.1,2-11.9,1.81-1.3,4.14-2.56,6.27-2.62,10.11-.27,20.23-.37,30.34,0,6.27.2,9.23,4,8.86,10.18C144.26,68.39,142,70.61,137.18,70.29Z"/></g></g></svg>