<svg xmlns="http://www.w3.org/2000/svg" viewBox="0 0 136.11 122.35"><defs><style>.cls-1{fill:#4d4d4d;}.cls-2{fill:#9d1a28;}</style></defs><g id="Layer_2" data-name="Layer 2"><g id="Layer_1-2" data-name="Layer 1"><path class="cls-1" d="M8,122.35c-.75-5.13-1.19-9.51-2.12-13.79A6.93,6.93,0,0,0,3,104.29c-2.67-1.46-3.08-3.36-3-6.1a169.4,169.4,0,0,1,11.61-57.4c.79-2,2.42-3.77,4-6.13-.41-.37-1.44-1.26-2.45-2.14C35.79-7.62,99.44-8.11,121.1,17.46c-7.59-2.72-14.51-4.88-21.17-7.66A53.92,53.92,0,0,0,72.58,6c-2.31.26-4.79-1.15-7.22-1.69C63.82,4,61.78,3.07,60.75,3.7c-4.86,3-9.44,6.41-14.11,9.67l.68,1.46c4.26-.92,8.58-1.62,12.77-2.8,13.93-3.92,27.54-3.57,41,2.11A183.12,183.12,0,0,0,120.38,21c4.19,1.25,6.65,3.78,8.74,7.42,5.82,10.17,9.46,20.44,5,32.28-1.6,4.24-3.38,6.06-8.19,5.47-5.4-.65-10.94-.31-16.42-.22C101,66.07,95.32,70.34,93,78.51c-1.52,5.35-4.83,8.67-9.59,11.31-6.69,3.7-13.43,7.49-19.48,12.12C49.46,113,32.41,117.16,15.27,121.26,13.22,121.76,11.08,121.9,8,122.35ZM6.78,87.21c16.37-5.15,31.87-10,47.32-15a6.13,6.13,0,0,0,3.34-2.82C61.13,61.69,65.16,54,68,46c2.14-6.16.17-8.44-6.48-8.28-14,.33-27.89,1.13-41.82,1.9a4.6,4.6,0,0,0-3.37,2.22A119.83,119.83,0,0,0,6.78,87.21Zm6.82,23c11.46-3.7,22.55-7.22,33.58-10.92,1.56-.52,2.83-1.92,4.23-2.91l-.63-1.55c-2,0-4.15-.36-6.09.07-8.44,1.85-16.84,3.91-25.25,5.92C12.18,102.53,12.18,102.54,13.6,110.19Zm88.41-63c2.2-9.32.82-11.12-8-11-5.16.07-10.32.34-15.47.32-3.57,0-4.23,1.57-3.14,4.82,5.92,0,11.72.1,17.52,0C97.26,41.15,100.94,41.83,102,47.16ZM94.71,50c-2.86-2-4.57-4.11-6.23-4.08-1.43,0-2.81,2.5-4.21,3.89,1.48,1.47,2.79,3.78,4.51,4.14C90.07,54.26,91.89,52,94.71,50ZM2.83,96.66l14.33-5.19C10.26,88.87,4.81,91,2.83,96.66Z"/><path class="cls-2" d="M64.62,108.44c8.82-5.56,17.76-11,26.38-16.8a12.78,12.78,0,0,0,4.83-6.79c2.55-10.06,5.45-12.72,15.76-12.94,4.83-.11,9.65-.29,14.47-.15a4.57,4.57,0,0,1,3.29,1.92c.34.55-.61,2.34-1.42,3.09-5.32,4.84-9.5,10.11-9.23,17.93,0,1-2.33,2.53-3.81,2.9-13,3.32-26.13,6.44-39.22,9.58-3.53.84-7.1,1.52-10.65,2.27Z"/></g></g></svg>