<svg xmlns="http://www.w3.org/2000/svg" viewBox="0 0 151.63 151.69"><defs><style>.cls-1{fill:#9d1a28;}.cls-2{fill:#4d4d4d;}</style></defs><g id="Layer_2" data-name="Layer 2"><g id="Layer_1-2" data-name="Layer 1"><path class="cls-1" d="M80.58,151.69H71.1a5.83,5.83,0,0,0-1-.24A68.71,68.71,0,0,1,48,146.36Q9.48,130.13,1.2,89.07C.64,86.28.39,83.43,0,80.61V71.13c.09-.43.2-.86.26-1.29.52-3.46.82-7,1.57-10.37A75.81,75.81,0,1,1,88.9,150.53C86.14,151,83.35,151.31,80.58,151.69ZM13,75.83A62.8,62.8,0,1,0,75.77,13.07,62.83,62.83,0,0,0,13,75.83Z"/><path class="cls-2" d="M75.77,98.6q-27,0-54.06,0a2.24,2.24,0,0,1-2.54-1.71c-12.74-34.14,7.47-71.63,43.15-80C96.12,9,129.82,31.66,135.45,66a60.66,60.66,0,0,1-3,31.15,1.88,1.88,0,0,1-2.12,1.46Q103,98.57,75.77,98.6Zm-.86-10.52a9.26,9.26,0,0,0,9.3-11.17,6.39,6.39,0,0,1,.13-2.85C86,68,87.74,62,89.45,56c.71-2.52,1.46-5,2.08-7.55.12-.46-.18-1.4-.46-1.48a2.84,2.84,0,0,0-1.64.44c-.24.1-.37.45-.55.68Q81.14,58.38,73.36,68.64a6,6,0,0,1-2.12,1.7,9.38,9.38,0,0,0-5.19,10.43A9.19,9.19,0,0,0,74.91,88.08ZM51.1,34c1,0,1.58-.81,1.22-1.55a22.93,22.93,0,0,0-2-3.41,1.45,1.45,0,0,0-1.39-.21,1.43,1.43,0,0,0-.5,1.32,27.81,27.81,0,0,0,2,3.43C50.54,33.78,50.94,33.86,51.1,34Zm52.52-4.22c-.44-.47-.71-1-1.08-1.08a1.45,1.45,0,0,0-1.25.41,21.37,21.37,0,0,0-1.91,3.31,1.36,1.36,0,0,0,.33,1.28c.29.23,1.15.28,1.3.08C101.93,32.48,102.72,31.14,103.62,29.73Zm19.26,19.64,0-.73c-.56-.24-1.26-.83-1.65-.67A15.24,15.24,0,0,0,117.66,50c-.26.19.06,1.13.12,1.73a5.61,5.61,0,0,0,1.77-.29C120.71,50.86,121.78,50.08,122.88,49.37Zm-48.21-25a5.94,5.94,0,0,0,0,1.89c.15.44.73,1,1.12,1a1.53,1.53,0,0,0,1.12-1,15.45,15.45,0,0,0,0-3.66,1.52,1.52,0,0,0-1.12-1c-.39,0-1,.58-1.13,1A5.36,5.36,0,0,0,74.67,24.35ZM30.28,47.68c-.44.3-1,.47-1.08.79a1.46,1.46,0,0,0,.17,1.3A26.53,26.53,0,0,0,33,51.86c.27.13,1-.22,1.19-.54a1.24,1.24,0,0,0-.08-1.19C32.93,49.26,31.62,48.51,30.28,47.68ZM24.81,76.51a6,6,0,0,0,1.9-.05,1.73,1.73,0,0,0,1-1.12,1.4,1.4,0,0,0-.9-1.07,19.41,19.41,0,0,0-4,0A1.4,1.4,0,0,0,22,75.37a1.81,1.81,0,0,0,1,1.1A5.36,5.36,0,0,0,24.81,76.51Zm102,0a4.73,4.73,0,0,0,1.6,0,5.73,5.73,0,0,0,1.35-1c-.4-.42-.74-1.13-1.19-1.2a12.14,12.14,0,0,0-3.51,0c-.44.07-.79.78-1.19,1.2a5.49,5.49,0,0,0,1.34,1A4.73,4.73,0,0,0,126.78,76.53Z"/><path class="cls-2" d="M21.11,101.05H130.73a60.38,60.38,0,0,1-52.42,35.18C49.94,137.37,28.63,119.15,21.11,101.05Z"/><path class="cls-2" d="M75.14,71.94a6.89,6.89,0,1,1-7,6.94A6.88,6.88,0,0,1,75.14,71.94Z"/><path class="cls-2" d="M87.42,54.43c-1.72,6-3.43,12.05-5.08,17.85L76,69.13,87.17,54.31Z"/></g></g></svg>