<svg xmlns="http://www.w3.org/2000/svg" viewBox="0 0 198.92 115.17"><defs><style>.cls-1{fill:#4d4d4d;}.cls-2{fill:#9d1a28;}</style></defs><g id="Layer_2" data-name="Layer 2"><g id="Layer_1-2" data-name="Layer 1"><path class="cls-1" d="M142.25,66.07c-12.95,4.64-26,9.35-39.1,14-6.4,2.28-14.57-.47-18.58-5.93a9.52,9.52,0,0,0-4.46-3.05c.08,5.66,2.53,9,7.5,11.27,7.08,3.25,13.57,4,20.9.45,8-3.88,16.54-6.67,25.85-10.33-4.15,10.6-3.54,20,2.44,29.58H124.7c-15.32,0-30.63-.08-45.95.07-2.88,0-4.69-.78-5.82-3.42a22.33,22.33,0,0,0-2.47-4.33C67.73,90.67,67,87,68.74,82.4,73.38,70.34,63.53,51,51.44,47.1,37.52,42.66,24,36.89,10.27,31.89c-2.75-1-5.81-1.14-8.73-1.68C6,21.61,18.47,19,26.39,24.27a109.52,109.52,0,0,0,35.1,15c10.79,2.63,20.61,4,29.18-5.58,3.64-4.06,8.69-3.33,14.27-1.6,8.12,2.53,16.89,3.06,25.43,4.13a7.86,7.86,0,0,0,5.06-1.69c6.08-4.59,12-9.42,18.59-14.68-1.77-3-3.37-6.68-5.9-9.6s-5.82-4.79-9.06-7.35C141.85,0,144.68-.87,147.73.94c12.66,7.53,24.84,15.67,32.05,29.17,2.24,4.19,4.16,8.55,6.12,12.62l-19.14,9.64c24.42,4.91,36.13,20.5,31,39.53a30.77,30.77,0,0,1-39.66,21.18C139.09,106.64,133.06,88.57,142.25,66.07Zm13,35.37c8.6,5.74,17.18,5.74,25,.16C177,97.81,175,92.78,169.08,92,161.83,91.13,159.41,97.11,155.25,101.44ZM188,76.77c-4.63,2.73-10.79,3.11-12.34,9.85-1.45,6.32,3.82,9.14,6.37,13.49C189.34,94.08,191.72,85,188,76.77Zm-39.74-1.5c4.84,1.38,9,5.86,14.61,2.32,5.95-3.78,3.73-9.73,4.33-15.08C158.47,62.61,151.91,67.05,148.23,75.27Zm5.35,25c3.1-4.75,8.48-8.46,6.25-14.44-2-5.23-7.57-6.58-13-8.25C145.18,86.56,146.68,93.84,153.58,100.23Zm15.76-38.1c.38,5.84-1.57,12.16,4,15.32,4.84,2.75,9.53-1,14.33-3C183.59,67.09,178,63.17,169.34,62.13ZM141.2,44l1.19,1.22c4.71-3.17,12.4.69,15.23-5.74a14.65,14.65,0,0,0-2.44-16.18,5.22,5.22,0,0,0-.45,3.76c2.73,8.81.88,12-7.9,13.56a10,10,0,0,0-3.35.81A11.37,11.37,0,0,0,141.2,44ZM87.34,45.09v1.84c3.68,1.45,7.26,3.32,11.07,4.25a77.52,77.52,0,0,0,12.75,1.55c.74.06,1.57-1.16,2.35-1.78-.67-.53-1.28-1.36-2-1.55-6.71-1.61-13.44-3.17-20.19-4.6C90,44.54,88.66,45,87.34,45.09Zm90.09-5.89c1.38-5.25-.62-9.17-5.24-10.92C171.05,32.85,172.51,36.05,177.43,39.2ZM96.8,56.76c-7.43.46-10.49,5.65-7.3,11.11Z"/><path class="cls-2" d="M32.05,115.17A31.92,31.92,0,0,1,0,83.61C-.25,66.3,14.1,51.66,31.51,51.47a31.85,31.85,0,1,1,.54,63.7ZM43,99.21c-3.22-3.34-4.74-8.28-10.59-8.58C26,90.31,24.1,95.49,20.6,99,27.9,104.34,35.51,104.42,43,99.21ZM50,76.94c-4.58,2.33-10.56,3-11.37,9.52-.62,5.1,3.29,8.07,6.2,11.53C51.42,91.58,53.17,84.47,50,76.94ZM14.3,75.67c4.51,1.25,8.55,5.49,13.59,1.52,4.44-3.49,3.08-8.37,3.12-13C23,64.3,17.25,68.24,14.3,75.67ZM19,98.14c2.7-4.54,7.68-7.67,5.66-13-1.83-4.79-6.78-6-11.65-7.43C11.3,85.74,12.75,92.21,19,98.14ZM33.3,64.28c.12,4.51-1.44,9.71,2.8,12.82,4.65,3.41,8.9-.69,13.34-2.06C45.92,67.86,40.65,64.33,33.3,64.28ZM52.92,89.64c-4.15,9.08-10.71,14.76-21.12,14.74-10.21,0-16.62-5.75-21.13-15.77,1.84,12.16,9.06,18.45,20.27,18.84C43.13,107.87,50.41,102.14,52.92,89.64Z"/><path class="cls-2" d="M80.47,35.65c-.86,3.43-3.12,3.73-6.12,3C64.73,36.32,54.91,35,46.09,29.73c-4.4-2.62-9.75-3.63-15.52-5.67C37.49,22.73,68.13,30.13,80.47,35.65Z"/></g></g></svg>